<svg xmlns="http://www.w3.org/2000/svg" viewBox="0 0 960 400" width="960" height="400" font-family="Helvetica, Arial, sans-serif">
  <defs>
    <marker id="arrd" viewBox="0 0 10 10" refX="8" refY="5" markerWidth="7" markerHeight="7" orient="auto-start-reverse">
      <path d="M0 0 L10 5 L0 10 z" fill="#555"/>
    </marker>
  </defs>
  <rect x="0" y="0" width="960" height="400" fill="#ffffff"/>
  <!-- Band 1 : with a backend server -->
  <text x="32" y="30" font-size="13" font-weight="bold" fill="#234">① With a backend server</text>
  <!-- legend: the cylinder marks a data store; plain boxes are processes -->
  <path d="M206 33 V43 A8 3 0 0 0 222 43 V33" fill="#888" fill-opacity="0.5"/>
  <ellipse cx="214" cy="33" rx="8" ry="3" fill="#888"/>
  <text x="230" y="43" font-size="9" fill="#666">= data store (table / object store); plain boxes are processes</text>
  <!-- Device -->
  <rect x="28" y="65" width="118" height="76" rx="12" fill="#eef6f0" stroke="#2f7d4a" stroke-width="1.5"/>
  <rect x="36" y="70" width="102" height="18" rx="6" fill="#2f7d4a"/>
  <text x="87" y="83" text-anchor="middle" font-size="10" font-weight="bold" fill="#fff">Device</text>
  <g font-size="8.5" fill="#456">
    <text x="38" y="106">collect · batch</text>
    <text x="38" y="120">a day of samples</text>
    <text x="38" y="134" fill="#9a7a4a">Apple · HC · Fitbit</text>
  </g>
  <line x1="148" y1="103" x2="225" y2="103" stroke="#555" stroke-width="1.6" marker-end="url(#arrd)"/>
  <text x="186" y="96" text-anchor="middle" font-size="7.5" font-weight="bold" fill="#c0392b">HTTPS</text>
  <!-- health_ingest_staging (transient inbox) -->
  <rect x="227" y="65" width="142" height="76" rx="12" fill="#e9eff7" stroke="#4072b8" stroke-width="1.5"/>
  <path d="M233 92 V114 A10 3.5 0 0 0 253 114 V92" fill="#4072b8" fill-opacity="0.5"/>
  <ellipse cx="243" cy="92" rx="10" ry="3.5" fill="#4072b8"/>
  <text x="258" y="86" font-size="7.5" font-weight="bold" fill="#234f86">health_ingest_staging</text>
  <g font-size="7.5" fill="#456">
    <text x="258" y="101">transient inbox (pg)</text>
    <text x="258" y="114">raw batch · opaque bytes</text>
    <text x="258" y="127" fill="#9a7a4a">deleted after drain</text>
  </g>
  <line x1="371" y1="103" x2="448" y2="103" stroke="#555" stroke-width="1.6" marker-end="url(#arrd)"/>
  <text x="409" y="96" text-anchor="middle" font-size="7" font-weight="bold" fill="#c0392b">claim</text>
  <text x="409" y="116" text-anchor="middle" font-size="6.5" fill="#456">format ≤ max</text>
  <!-- DuckDB worker (drains the inbox; runs the pipeline) -->
  <rect x="450" y="52" width="200" height="102" rx="12" fill="#f5ecfa" stroke="#8a4fb0" stroke-width="1.5"/>
  <rect x="458" y="57" width="184" height="18" rx="6" fill="#8a4fb0"/>
  <text x="550" y="70" text-anchor="middle" font-size="10" font-weight="bold" fill="#fff">Ingest worker</text>
  <text x="550" y="89" text-anchor="middle" font-size="7.5" fill="#5e2e80">decode(format) → pipeline</text>
  <g font-size="8" text-anchor="middle">
    <rect x="458" y="95" width="58" height="20" rx="6" fill="#efe1f6" stroke="#8a4fb0"/><text x="487" y="109" fill="#5e2e80">Validate</text>
    <rect x="520" y="95" width="66" height="20" rx="6" fill="#efe1f6" stroke="#8a4fb0"/><text x="553" y="109" fill="#5e2e80">Normalize</text>
    <rect x="590" y="95" width="52" height="20" rx="6" fill="#efe1f6" stroke="#8a4fb0"/><text x="616" y="109" fill="#5e2e80">Rollup</text>
  </g>
  <text x="550" y="134" text-anchor="middle" font-size="7.5" fill="#5e2e80">reads inbox · writes the three stores →</text>
  <!-- fan-out from the worker's right-middle: middle horizontal, top/bottom symmetric about it -->
  <line x1="650" y1="103" x2="731" y2="49" stroke="#555" stroke-width="1.5" marker-end="url(#arrd)"/>
  <line x1="650" y1="103" x2="731" y2="103" stroke="#555" stroke-width="1.5" marker-end="url(#arrd)"/>
  <line x1="650" y1="103" x2="731" y2="157" stroke="#555" stroke-width="1.4" stroke-dasharray="4 3" marker-end="url(#arrd)"/>
  <!-- fhir_resources (summaries) -->
  <rect x="731" y="28" width="200" height="42" rx="10" fill="#e9eff7" stroke="#4072b8" stroke-width="1.4"/>
  <path d="M737 38 V60 A10 3.5 0 0 0 757 60 V38" fill="#4072b8" fill-opacity="0.5"/>
  <ellipse cx="747" cy="38" rx="10" ry="3.5" fill="#4072b8"/>
  <text x="765" y="45" font-size="9.5" font-weight="bold" fill="#234f86">fhir_resources</text>
  <text x="765" y="61" font-size="7.5" fill="#456">summary Observations · FHIR truth</text>
  <!-- health_facts (hot) — the horizontal arrow lands here -->
  <rect x="731" y="82" width="200" height="42" rx="10" fill="#fff3e0" stroke="#c08a3e" stroke-width="1.4"/>
  <path d="M737 92 V114 A10 3.5 0 0 0 757 114 V92" fill="#c08a3e" fill-opacity="0.5"/>
  <ellipse cx="747" cy="92" rx="10" ry="3.5" fill="#c08a3e"/>
  <text x="765" y="99" font-size="9.5" font-weight="bold" fill="#7a5419">health_facts — hot</text>
  <text x="765" y="115" font-size="7.5" fill="#9a7a4a">trends (SQL) · semantic recall (cosine)</text>
  <!-- Parquet (cold) -->
  <rect x="731" y="136" width="200" height="42" rx="10" fill="#fff3e0" stroke="#c08a3e" stroke-width="1.3" stroke-dasharray="5 3"/>
  <path d="M737 146 V168 A10 3.5 0 0 0 757 168 V146" fill="#c08a3e" fill-opacity="0.5"/>
  <ellipse cx="747" cy="146" rx="10" ry="3.5" fill="#c08a3e"/>
  <text x="765" y="153" font-size="9.5" font-weight="bold" fill="#7a5419">Parquet — raw, cold</text>
  <text x="765" y="169" font-size="7.5" fill="#9a7a4a">every sample · object storage</text>
  <!-- shared-core annotation -->
  <line x1="32" y1="224" x2="928" y2="224" stroke="#ddd" stroke-width="1"/>
  <text x="480" y="243" text-anchor="middle" font-size="10.5" font-weight="bold" fill="#c0392b">Server decouples ingest via a transient inbox + a background worker (the hot path can't link the Parquet engine); on-device runs the same pipeline inline.</text>
  <!-- Band 2 : fully on-device -->
  <text x="32" y="272" font-size="13" font-weight="bold" fill="#234">② Without a backend — fully on-device</text>
  <!-- Device (on-device) -->
  <rect x="28" y="286" width="152" height="90" rx="12" fill="#eef6f0" stroke="#2f7d4a" stroke-width="1.5"/>
  <rect x="36" y="291" width="136" height="19" rx="6" fill="#2f7d4a"/>
  <text x="104" y="305" text-anchor="middle" font-size="10.5" font-weight="bold" fill="#fff">Device</text>
  <g font-size="8.5" fill="#456">
    <text x="40" y="330">collect samples</text>
    <text x="40" y="344">batch · map → FHIR Obs</text>
    <text x="40" y="360" fill="#9a7a4a">no upload needed</text>
  </g>
  <line x1="182" y1="331" x2="278" y2="331" stroke="#555" stroke-width="1.6" marker-end="url(#arrd)"/>
  <text x="230" y="324" text-anchor="middle" font-size="7.5" font-weight="bold" fill="#c0392b">C ABI</text>
  <!-- ingest pipeline (in-process) -->
  <rect x="280" y="286" width="252" height="90" rx="12" fill="#fafafb" stroke="#2f7d4a" stroke-width="1.5"/>
  <rect x="288" y="291" width="236" height="19" rx="6" fill="#2f7d4a"/>
  <text x="406" y="305" text-anchor="middle" font-size="10" font-weight="bold" fill="#fff">ingest pipeline · mirobody_core</text>
  <g font-size="8.5" text-anchor="middle">
    <rect x="288" y="322" width="74" height="22" rx="7" fill="#dff0e4" stroke="#2f7d4a"/><text x="325" y="337" fill="#1c5233">Validate</text>
    <rect x="368" y="322" width="82" height="22" rx="7" fill="#dff0e4" stroke="#2f7d4a"/><text x="409" y="337" fill="#1c5233">Normalize</text>
    <rect x="456" y="322" width="68" height="22" rx="7" fill="#dff0e4" stroke="#2f7d4a"/><text x="490" y="337" fill="#1c5233">Rollup</text>
  </g>
  <text x="406" y="362" text-anchor="middle" font-size="8" fill="#456">the same stages, run in-process</text>
  <line x1="534" y1="331" x2="629" y2="331" stroke="#555" stroke-width="1.6" marker-end="url(#arrd)"/>
  <!-- SQLite -->
  <rect x="631" y="286" width="300" height="90" rx="12" fill="#fff3e0" stroke="#c08a3e" stroke-width="1.5"/>
  <path d="M639 320 V342 A10 3.5 0 0 0 659 342 V320" fill="#c08a3e" fill-opacity="0.5"/>
  <ellipse cx="649" cy="320" rx="10" ry="3.5" fill="#c08a3e"/>
  <text x="667" y="312" font-size="10.5" font-weight="bold" fill="#7a5419">SQLite — on-device</text>
  <g font-size="8.5" fill="#7a5419">
    <text x="667" y="334">fhir_resources · health_indicators · health_facts</text>
    <text x="667" y="349">same schema · owner's rows only</text>
    <text x="667" y="364" fill="#9a7a4a">embeddings ranked by in-process cosine</text>
  </g>
  <text x="781" y="392" text-anchor="middle" font-size="8" font-weight="bold" fill="#c0392b">no inbox · no worker · no cold tier</text>
</svg>
